<svg xmlns="http://www.w3.org/2000/svg" viewBox="0 0 360 360" fill="none" stroke="#111" stroke-width="1.75" stroke-linecap="round" stroke-linejoin="round" class="line-art">
  <rect x="48" y="72" width="264" height="156" rx="14"/>
  <path d="M48 108h264"/>
  <circle cx="72" cy="90" r="5"/>
  <circle cx="92" cy="90" r="5"/>
  <circle cx="112" cy="90" r="5"/>
  <path d="M88 248h184"/>
  <path d="M120 248v-20M200 248v-20"/>
  <rect x="100" y="140" width="160" height="72" rx="8"/>
  <path d="M116 188h32M164 176h48M228 164h16"/>
  <path d="M116 164v48M164 152v60M228 140v72"/>
  <path d="M72 260c0-28 24-48 56-48h104c32 0 56 20 56 48"/>
  <rect x="148" y="56" width="64" height="36" rx="6"/>
  <path d="M156 68h48M156 76h32"/>
</svg>
