<svg xmlns="http://www.w3.org/2000/svg" viewBox="0 0 360 280" fill="none" stroke="#111" stroke-width="1.75" stroke-linecap="round" stroke-linejoin="round">
  <rect x="40" y="60" width="120" height="80" rx="6"/>
  <rect x="50" y="70" width="100" height="55" rx="4"/>
  <rect x="200" y="50" width="120" height="90" rx="6"/>
  <rect x="210" y="60" width="100" height="65" rx="4"/>
  <line x1="100" y1="140" x2="100" y2="200"/>
  <line x1="260" y1="140" x2="260" y2="200"/>
  <line x1="60" y1="200" x2="300" y2="200"/>
  <circle cx="180" cy="210" r="28"/>
  <path d="M152 218c6-20 20-32 40-32s34 12 40 32"/>
  <path d="M165 235h50"/>
  <rect x="155" y="245" width="50" height="8" rx="4"/>
  <path d="M120 95h20M240 85h30"/>
  <path d="M48 48h24M288 36h32"/>
</svg>
