<svg xmlns="http://www.w3.org/2000/svg" viewBox="0 0 420 420" fill="none" stroke="#111" stroke-width="2" stroke-linecap="round" stroke-linejoin="round">
  <circle cx="210" cy="95" r="42"/>
  <path d="M168 118c8 28 34 48 64 48s56-20 64-48"/>
  <rect x="175" y="155" width="70" height="12" rx="6"/>
  <path d="M155 167h110l-18 95H173l-18-95z"/>
  <path d="M195 262v55M225 262v55M185 317h60"/>
  <rect x="268" y="88" width="52" height="32" rx="8"/>
  <circle cx="284" cy="104" r="6"/>
  <path d="M296 104h16"/>
  <rect x="95" y="200" width="44" height="28" rx="6"/>
  <path d="M105 214h24"/>
  <rect x="300" y="200" width="36" height="20" rx="10" fill="#FFE600" stroke="#111"/>
  <circle cx="318" cy="210" r="6" fill="#fff"/>
  <rect x="88" y="120" width="36" height="56" rx="6"/>
  <path d="M98 132h16M98 148h16M98 164h16"/>
  <path d="M130 148c20-8 40-8 60 0"/>
  <ellipse cx="330" cy="155" rx="18" ry="10"/>
  <path d="M312 155h36"/>
</svg>
